<svg xmlns="http://www.w3.org/2000/svg" viewBox="0 0 25.372 24.059"><defs><style>.a{fill:#0096b1;}.b{fill:#fff;}</style></defs><path class="a" d="M12.686,0C5.677,0,0,5.093,0,11.373a10.485,10.485,0,0,0,2.1,6.261c-.171,2.081-.679,5-2.1,6.425A22.9,22.9,0,0,0,7.244,21.7l.006-.006c.907-.565,1.935-1.218,2.182-1.414a.5.5,0,0,1,.672-.14.511.511,0,0,1,.247.438c0,.292-.006.381-1.852,1.529a13.961,13.961,0,0,0,4.186.634c7,0,12.686-5.093,12.686-11.373S19.7,0,12.686,0Zm0,0"/><path class="b" d="M21.612,12.545h-7.1a.507.507,0,1,1,0-1.015h7.1a.507.507,0,0,1,0,1.015Zm0,0" transform="translate(-5.12 -4.217)"/><path class="b" d="M22.793,18.145H10.107a.507.507,0,1,1,0-1.015H22.793a.507.507,0,0,1,0,1.015Zm0,0" transform="translate(-3.511 -6.264)"/><path class="b" d="M22.793,23.745H10.107a.507.507,0,1,1,0-1.015H22.793a.507.507,0,0,1,0,1.015Zm0,0" transform="translate(-3.511 -8.312)"/></svg>