<svg xmlns="http://www.w3.org/2000/svg" viewBox="0 0 21.633 20"><defs><style>.a{fill:#43b05c;}.b{fill:#48a0dc;}.c{fill:#3d994f;}.d{fill:#4393bf;}.e{fill:#efce4a;}.f{fill:#d6b445;}</style></defs><path class="a" d="M7.347,10.829.918,4.4,0,4.6V22.155l.857-.189,6.49-6.49Zm0,0" transform="translate(0 -2.155)"/><path class="b" d="M7.5,34.156l3.52-.786V30.63Zm0,0" transform="translate(-3.673 -15.002)"/><path class="a" d="M10.046,1.6,5.51,2.605l4.536,4.536Zm0,0" transform="translate(-2.699 -0.784)"/><path class="a" d="M33.9.94,28,2.909V6.838Zm0,0" transform="translate(-13.714 -0.46)"/><path class="b" d="M28,9.977v10.9l7.347-2.857V2.63Zm0,0" transform="translate(-13.714 -1.288)"/><path class="c" d="M17.88,10.626l3.459-3.464V3.233L14.4,1.6V7.146Zm0,0" transform="translate(-7.053 -0.784)"/><path class="c" d="M14.4,17v4.648l2.327-2.321Zm0,0" transform="translate(-7.053 -8.327)"/><path class="d" d="M14.4,23.969v2.74l6.939,1.224V17.03Zm0,0" transform="translate(-7.053 -8.341)"/><path class="e" d="M8.229,8.111,3.693,3.57,1.8,3.993l6.429,6.429Zm0,0" transform="translate(-0.882 -1.749)"/><path class="e" d="M8.17,26.11,1.68,32.6l2.969-.658,3.52-3.52Zm0,0" transform="translate(-0.823 -12.789)"/><path class="e" d="M28,8.689l7.347-7.347V0L33.9.48,28,6.378Zm0,0" transform="translate(-13.714)"/><path class="f" d="M17.88,15.95,14.4,12.47v2.311L16.727,17.1,14.4,19.424v2.311L21.339,14.8V12.485Zm0,0" transform="translate(-7.053 -6.108)"/></svg>