<svg xmlns="http://www.w3.org/2000/svg" viewBox="0 0 11.439 13"><defs><style>.a{fill:#fff;}</style></defs><path class="a" d="M5.17,12.529V6.565a.967.967,0,1,1,.933.071v5.893A.473.473,0,0,1,5.632,13a.467.467,0,0,1-.462-.471ZM8.046,7.662a.469.469,0,0,0,.244.071.457.457,0,0,0,.4-.227,3.394,3.394,0,0,0,.494-1.929A3.461,3.461,0,0,0,5.595,2.271,3.457,3.457,0,0,0,2.3,5.861a3.459,3.459,0,0,0,.422,1.527.468.468,0,0,0,.643.181.476.476,0,0,0,.181-.643,2.608,2.608,0,0,1-.313-1.113,2.552,2.552,0,0,1,.658-1.8A2.518,2.518,0,0,1,8.25,5.618a2.452,2.452,0,0,1-.361,1.4.469.469,0,0,0,.158.641Zm1.38,1.811a.481.481,0,0,0,.666-.055,5.725,5.725,0,1,0-8.6.158.476.476,0,0,0,.345.158.445.445,0,0,0,.313-.126.479.479,0,0,0,.032-.666A4.78,4.78,0,1,1,9.37,8.807a.466.466,0,0,0,.057.666Zm0,0"/></svg>