<svg xmlns="http://www.w3.org/2000/svg" viewBox="0 0 19.84 23.341"><defs><style>.a{fill:#333;}</style></defs><path class="a" d="M9.92,23.341a2.336,2.336,0,0,1-2.334-2.334h4.668A2.337,2.337,0,0,1,9.92,23.341Zm9.92-3.5H0V18.673l2.334-2.335V9.92A7.489,7.489,0,0,1,4,5.186,7.637,7.637,0,0,1,8.169,2.544V1.751a1.751,1.751,0,0,1,3.5,0v.794a7.642,7.642,0,0,1,4.174,2.641A7.489,7.489,0,0,1,17.506,9.92v6.419l2.334,2.335v1.165ZM9.92,4.668A5.257,5.257,0,0,0,4.668,9.92v7.586h10.5V9.92A5.257,5.257,0,0,0,9.92,4.668Z"/></svg>